# xmcd CD database file
#
# Track frame offsets:
#	150
#	35370
#	80747
#	119141
#	149164
#	199306
#	243620
#
# Disc length: 4137 seconds
#
# Revision: 0
# Processed by: cddbd v1.5.2PL0 Copyright (c) Steve Scherf et al.
# Submitted via: CDex 1.51
#
DISCID=71102707
DTITLE=Scott Tinkler - Sofa King
DYEAR=1998
DGENRE=Jazz
TTITLE0=Mirror Mirror
TTITLE1=Subject To Non Refundable Confiscation
TTITLE2=Magic Music Man
TTITLE3=A Moment In The Garage
TTITLE4=Southern Charm
TTITLE5=Sofa King
TTITLE6=Serendipity
EXTD=YEAR: 1998
EXTT0=
EXTT1=
EXTT2=
EXTT3=
EXTT4=
EXTT5=
EXTT6=
PLAYORDER=
